<!-- Generated by readme-aura https://github.com/collectioneur/readme-aura -->
<svg width="800" height="200" viewBox="0 0 800 200" xmlns="http://www.w3.org/2000/svg"><clipPath id="satori_cp-id"><path x="0" y="0" width="800" height="200" d="M20,0 h760 a20,20 0 0 1 20,20 v160 a20,20 0 0 1 -20,20 h-760 a20,20 0 0 1 -20,-20 v-160 a20,20 0 0 1 20,-20"/></clipPath><mask id="satori_om-id"><rect x="0" y="0" width="800" height="200" fill="#fff"/></mask><path x="0" y="0" width="800" height="200" fill="#08080d" d="M20,0 h760 a20,20 0 0 1 20,20 v160 a20,20 0 0 1 -20,20 h-760 a20,20 0 0 1 -20,-20 v-160 a20,20 0 0 1 20,-20"/><clipPath id="satori_cp-id-0" clip-path="url(#satori_cp-id)"><rect x="0" y="0" width="800" height="200"/></clipPath><mask id="satori_om-id-0"><rect x="0" y="0" width="800" height="200" fill="#fff" mask="url(#satori_om-id)"/></mask><svg x="0" y="0" width="800" height="200" preserveAspectRatio="none" clip-path="url(#satori_cp-id-0)" mask="url(#satori_om-id-0)"><defs><radialGradient id="sg1" cx="50%" cy="50%" r="50%"><stop offset="0%" stop-color="rgba(108,195,130,0.4)"></stop><stop offset="100%" stop-color="rgba(108,195,130,0)"></stop></radialGradient><radialGradient id="sg2" cx="50%" cy="50%" r="50%"><stop offset="0%" stop-color="rgba(230,100,115,0.35)"></stop><stop offset="100%" stop-color="rgba(230,100,115,0)"></stop></radialGradient><radialGradient id="sg3" cx="50%" cy="50%" r="50%"><stop offset="0%" stop-color="rgba(80,160,220,0.3)"></stop><stop offset="100%" stop-color="rgba(80,160,220,0)"></stop></radialGradient><radialGradient id="sg4" cx="50%" cy="50%" r="50%"><stop offset="0%" stop-color="rgba(195,155,255,0.3)"></stop><stop offset="100%" stop-color="rgba(195,155,255,0)"></stop></radialGradient></defs><ellipse id="st-o1" cx="80" cy="160" rx="160" ry="120" fill="url(#sg1)"></ellipse><ellipse id="st-o2" cx="730" cy="50" rx="150" ry="120" fill="url(#sg2)"></ellipse><ellipse id="st-o3" cx="640" cy="170" rx="140" ry="110" fill="url(#sg3)"></ellipse><ellipse id="st-o4" cx="180" cy="40" rx="130" ry="100" fill="url(#sg4)"></ellipse><style>

    @keyframes stack-orb { 0%, 100% { transform: translate(0,0); opacity: 0.45; } 50% { transform: translate(18px,-14px); opacity: 0.7; } }
    @keyframes stack-orb-b { 0%, 100% { transform: translate(0,0); opacity: 0.4; } 50% { transform: translate(-14px,10px); opacity: 0.65; } }
    @keyframes chip-appear { 0% { opacity: 0; transform: translateY(8px); } 100% { opacity: 1; transform: translateY(0); } }
    #st-o1 { animation: stack-orb 10s ease-in-out infinite; }
    #st-o2 { animation: stack-orb-b 12s ease-in-out infinite 1s; }
    #st-o3 { animation: stack-orb 9s ease-in-out infinite 2.5s; }
    #st-o4 { animation: stack-orb-b 11s ease-in-out infinite 0.5s; }
  
</style>
</svg><mask id="satori_om-id-0-0"><rect x="0" y="0" width="0" height="200" fill="#fff" mask="url(#satori_om-id)"/></mask><mask id="satori_om-id-0-0-0"><rect x="0" y="0" width="0" height="200" fill="#fff" mask="url(#satori_om-id)"/></mask><mask id="satori_om-id-0-0-0-0"><rect x="0" y="0" width="0" height="200" fill="#fff" mask="url(#satori_om-id)"/></mask><mask id="satori_om-id-0-0-0-1"><rect x="0" y="0" width="0" height="200" fill="#fff" mask="url(#satori_om-id)"/></mask><mask id="satori_om-id-0-0-1"><rect x="0" y="0" width="0" height="200" fill="#fff" mask="url(#satori_om-id)"/></mask><mask id="satori_om-id-0-0-1-0"><rect x="0" y="0" width="0" height="200" fill="#fff" mask="url(#satori_om-id)"/></mask><mask id="satori_om-id-0-0-1-1"><rect x="0" y="0" width="0" height="200" fill="#fff" mask="url(#satori_om-id)"/></mask><mask id="satori_om-id-0-0-2"><rect x="0" y="0" width="0" height="200" fill="#fff" mask="url(#satori_om-id)"/></mask><mask id="satori_om-id-0-0-2-0"><rect x="0" y="0" width="0" height="200" fill="#fff" mask="url(#satori_om-id)"/></mask><mask id="satori_om-id-0-0-2-1"><rect x="0" y="0" width="0" height="200" fill="#fff" mask="url(#satori_om-id)"/></mask><mask id="satori_om-id-0-0-3"><rect x="0" y="0" width="0" height="200" fill="#fff" mask="url(#satori_om-id)"/></mask><mask id="satori_om-id-0-0-3-0"><rect x="0" y="0" width="0" height="200" fill="#fff" mask="url(#satori_om-id)"/></mask><mask id="satori_om-id-0-0-3-1"><rect x="0" y="0" width="0" height="200" fill="#fff" mask="url(#satori_om-id)"/></mask><mask id="satori_om-id-0-1"><rect x="0" y="0" width="0" height="200" fill="#fff" mask="url(#satori_om-id)"/></mask><mask id="satori_om-id-0-2"><rect x="0" y="0" width="0" height="200" fill="#fff" mask="url(#satori_om-id)"/></mask><mask id="satori_om-id-0-3"><rect x="0" y="0" width="0" height="200" fill="#fff" mask="url(#satori_om-id)"/></mask><mask id="satori_om-id-0-4"><rect x="0" y="0" width="0" height="200" fill="#fff" mask="url(#satori_om-id)"/></mask><mask id="satori_om-id-1"><rect x="371" y="68" width="58" height="13" fill="#fff" mask="url(#satori_om-id)"/></mask><g mask="url(#satori_om-id)" clip-path="url(#satori_cp-id)"><path fill="rgba(255,255,255,0.3)" d="M374.5 79.1L374.5 79.1Q373.7 79.1 373.0 78.9Q372.4 78.6 372.0 78.1Q371.7 77.6 371.6 76.9L371.6 76.9L372.7 76.9Q372.7 77.4 373.0 77.6Q373.2 77.9 373.7 78.1Q374.1 78.2 374.5 78.2L374.5 78.2Q375.1 78.2 375.5 78.0Q375.9 77.9 376.2 77.5Q376.4 77.2 376.4 76.8L376.4 76.8Q376.4 76.4 376.2 76.2Q376.0 75.9 375.6 75.8Q375.3 75.6 374.9 75.5L374.9 75.5L373.9 75.2Q372.9 75.0 372.4 74.4Q371.8 73.9 371.8 73.1L371.8 73.1Q371.8 72.5 372.2 72.0Q372.6 71.4 373.2 71.2Q373.8 70.9 374.6 70.9L374.6 70.9Q375.4 70.9 376.0 71.2Q376.6 71.4 377.0 71.9Q377.3 72.4 377.3 73.0L377.3 73.0L376.3 73.0Q376.3 72.4 375.8 72.1Q375.3 71.8 374.6 71.8L374.6 71.8Q374.1 71.8 373.7 72.0Q373.3 72.1 373.1 72.4Q372.8 72.7 372.8 73.1L372.8 73.1Q372.8 73.5 373.1 73.8Q373.4 74.0 373.7 74.2Q374.1 74.3 374.4 74.4L374.4 74.4L375.2 74.6Q375.5 74.7 375.9 74.8Q376.3 75.0 376.6 75.2Q377.0 75.5 377.2 75.9Q377.4 76.3 377.4 76.8L377.4 76.8Q377.4 77.5 377.1 78.0Q376.8 78.5 376.1 78.8Q375.5 79.1 374.5 79.1ZM385.1 71.9L382.6 71.9L382.6 71.0L388.6 71.0L388.6 71.9L386.1 71.9L386.1 79L385.1 79L385.1 71.9ZM394.5 79L393.4 79L396.3 71.0L397.5 71.0L400.5 79L399.4 79L398.6 76.8L395.3 76.8L394.5 79ZM395.6 75.9L398.3 75.9L397.7 74.3Q397.5 73.8 397.3 73.2L397.3 73.2Q397.2 72.6 396.9 71.8L396.9 71.8Q396.7 72.6 396.5 73.2L396.5 73.2Q396.3 73.8 396.2 74.3L396.2 74.3L395.6 75.9ZM409.0 79.1L409.0 79.1Q407.9 79.1 407.1 78.6Q406.3 78.1 405.9 77.2Q405.4 76.3 405.4 75.0L405.4 75.0Q405.4 73.7 405.9 72.8Q406.3 71.9 407.1 71.4Q407.9 70.9 409.0 70.9L409.0 70.9Q409.6 70.9 410.1 71.1Q410.6 71.2 411.1 71.6Q411.5 71.9 411.8 72.4Q412.1 72.9 412.2 73.5L412.2 73.5L411.2 73.5Q411.1 73.1 410.9 72.8Q410.7 72.5 410.4 72.3Q410.1 72.0 409.7 71.9Q409.3 71.8 409.0 71.8L409.0 71.8Q408.2 71.8 407.7 72.2Q407.1 72.6 406.7 73.3Q406.4 74.0 406.4 75.0L406.4 75.0Q406.4 76.0 406.7 76.7Q407.1 77.4 407.7 77.8Q408.2 78.2 409.0 78.2L409.0 78.2Q409.3 78.2 409.7 78.1Q410.1 77.9 410.4 77.7Q410.7 77.5 410.9 77.2Q411.1 76.9 411.2 76.5L411.2 76.5L412.2 76.5Q412.1 77.1 411.8 77.6Q411.5 78.1 411.1 78.4Q410.6 78.7 410.1 78.9Q409.6 79.1 409.0 79.1ZM418.8 79L417.7 79L417.7 71.0L418.8 71.0L418.8 73.7L418.8 75.2Q418.9 75.1 419.0 74.9L419.0 74.9Q419.3 74.6 419.5 74.2Q419.8 73.9 420.1 73.6L420.1 73.6L422.5 71.0L423.9 71.0L420.6 74.5L423.9 79L422.7 79L419.9 75.2L418.8 76.4L418.8 79Z "/></g><mask id="satori_om-id-2"><rect x="347" y="101" width="106" height="31" fill="#fff" mask="url(#satori_om-id)"/></mask><defs><clipPath id="satori_bc-id-2-0" clip-path="url(#satori_cp-id)"><path x="347" y="101" width="106" height="31" d="M362.5,101 h75 a15.5,15.5 0 0 1 15.5,15.5 v0 a15.5,15.5 0 0 1 -15.5,15.5 h-75 a15.5,15.5 0 0 1 -15.5,-15.5 v0 a15.5,15.5 0 0 1 15.5,-15.5"/></clipPath></defs><mask id="satori_om-id-2-0"><rect x="348" y="102" width="104" height="29" fill="#fff" mask="url(#satori_om-id)"/><path width="106" height="31" fill="none" stroke="#000" stroke-width="2" d="M351.54,105.53999999999999 A15.5,15.5 0 0 1 362.5,101 h75 a15.5,15.5 0 0 1 15.5,15.5 v0 a15.5,15.5 0 0 1 -15.5,15.5 h-75 a15.5,15.5 0 0 1 -15.5,-15.5 v0 A15.5,15.5 0 0 1 351.54,105.53999999999999"/></mask><path x="347" y="101" width="106" height="31" fill="rgba(255,255,255,0.04)" d="M362.5,101 h75 a15.5,15.5 0 0 1 15.5,15.5 v0 a15.5,15.5 0 0 1 -15.5,15.5 h-75 a15.5,15.5 0 0 1 -15.5,-15.5 v0 a15.5,15.5 0 0 1 15.5,-15.5" clip-path="url(#satori_cp-id)" mask="url(#satori_om-id)"/><path width="106" height="31" clip-path="url(#satori_bc-id-2-0)" fill="none" stroke="rgba(255,255,255,0.08)" stroke-width="2" d="M351.54,105.53999999999999 A15.5,15.5 0 0 1 362.5,101 h75 a15.5,15.5 0 0 1 15.5,15.5 v0 a15.5,15.5 0 0 1 -15.5,15.5 h-75 a15.5,15.5 0 0 1 -15.5,-15.5 v0 A15.5,15.5 0 0 1 351.54,105.53999999999999"/><g mask="url(#satori_om-id)" clip-path="url(#satori_cp-id)"><path fill="rgba(255,255,255,0.65)" d="M369.3 113.3L366.6 113.3L366.6 112.3L373.2 112.3L373.2 113.3L370.4 113.3L370.4 121L369.3 121L369.3 113.3ZM375.1 123.4L375.1 123.4L375.3 122.5L375.4 122.5Q375.8 122.6 376.0 122.5Q376.3 122.5 376.5 122.3Q376.7 122.0 376.9 121.6L376.9 121.6L377.1 121.0L374.6 114.4L375.7 114.4L377.1 118.3Q377.3 118.9 377.5 119.5L377.5 119.5Q377.6 119.8 377.6 120.0L377.6 120.0Q377.7 119.8 377.8 119.5L377.8 119.5Q377.9 118.9 378.1 118.3L378.1 118.3L379.5 114.4L380.7 114.4L377.8 122.0Q377.6 122.5 377.3 122.8Q377.0 123.2 376.7 123.3Q376.3 123.5 375.8 123.5L375.8 123.5Q375.6 123.5 375.4 123.5Q375.1 123.4 375.1 123.4ZM383.5 123.4L382.4 123.4L382.4 114.4L383.4 114.4L383.4 115.5L383.6 115.5Q383.7 115.3 383.9 115.1Q384.1 114.8 384.4 114.6Q384.8 114.4 385.5 114.4L385.5 114.4Q386.3 114.4 386.9 114.8Q387.5 115.2 387.9 115.9Q388.2 116.7 388.2 117.7L388.2 117.7Q388.2 118.8 387.9 119.5Q387.5 120.3 386.9 120.7Q386.3 121.1 385.5 121.1L385.5 121.1Q384.8 121.1 384.5 120.9Q384.1 120.7 383.9 120.4Q383.7 120.2 383.6 120.0L383.6 120.0L383.5 120.0L383.5 123.4ZM385.3 120.2L385.3 120.2Q385.9 120.2 386.3 119.9Q386.7 119.5 386.9 119.0Q387.2 118.4 387.2 117.7L387.2 117.7Q387.2 117.1 387.0 116.5Q386.7 116.0 386.3 115.6Q385.9 115.3 385.3 115.3L385.3 115.3Q384.7 115.3 384.3 115.6Q383.9 115.9 383.7 116.5Q383.5 117.0 383.5 117.7L383.5 117.7Q383.5 118.5 383.7 119.0Q383.9 119.6 384.3 119.9Q384.7 120.2 385.3 120.2ZM393.0 121.1L393.0 121.1Q392.1 121.1 391.4 120.7Q390.7 120.3 390.3 119.5Q389.9 118.8 389.9 117.8Q389.9 116.8 390.3 116.0Q390.7 115.2 391.3 114.8Q392.0 114.4 392.9 114.4L392.9 114.4Q393.4 114.4 393.9 114.5Q394.4 114.7 394.8 115.1Q395.3 115.5 395.5 116.1Q395.7 116.7 395.7 117.6L395.7 117.6L395.7 118.1L391.0 118.1Q391.0 118.7 391.3 119.2L391.3 119.2Q391.5 119.7 392.0 119.9Q392.4 120.2 393.0 120.2L393.0 120.2Q393.4 120.2 393.7 120.1Q394.0 120.0 394.3 119.8Q394.5 119.5 394.6 119.2L394.6 119.2L395.6 119.5Q395.5 120.0 395.1 120.3Q394.8 120.7 394.2 120.9Q393.7 121.1 393.0 121.1ZM391.0 117.2L391.0 117.2L394.7 117.2Q394.6 116.7 394.5 116.4L394.5 116.4Q394.3 115.9 393.9 115.6Q393.5 115.3 392.9 115.3Q392.3 115.3 391.9 115.6Q391.5 115.9 391.2 116.3L391.2 116.3Q391.0 116.7 391.0 117.2ZM400.7 121.2L400.7 121.2Q399.7 121.2 399.0 120.8Q398.4 120.5 398.0 120.0Q397.6 119.4 397.5 118.7L397.5 118.7L398.7 118.7Q398.7 119.2 399.0 119.5Q399.3 119.8 399.7 120.0Q400.2 120.2 400.7 120.2L400.7 120.2Q401.3 120.2 401.7 120.0Q402.2 119.8 402.5 119.4Q402.8 119.1 402.8 118.6L402.8 118.6Q402.8 118.2 402.5 117.9Q402.3 117.7 401.9 117.5Q401.5 117.3 401.0 117.2L401.0 117.2L400.0 116.9Q398.9 116.6 398.3 116.0Q397.8 115.5 397.8 114.6L397.8 114.6Q397.8 113.9 398.2 113.3Q398.6 112.8 399.2 112.5Q399.9 112.2 400.8 112.2L400.8 112.2Q401.6 112.2 402.3 112.5Q402.9 112.8 403.3 113.3Q403.7 113.8 403.7 114.5L403.7 114.5L402.6 114.5Q402.6 113.8 402.0 113.5Q401.5 113.1 400.7 113.1L400.7 113.1Q400.2 113.1 399.7 113.3Q399.3 113.5 399.1 113.8Q398.8 114.1 398.8 114.6L398.8 114.6Q398.8 115.0 399.1 115.3Q399.4 115.6 399.8 115.7Q400.2 115.9 400.5 116.0L400.5 116.0L401.4 116.2Q401.7 116.3 402.2 116.5Q402.6 116.6 403.0 116.9Q403.4 117.2 403.6 117.6Q403.9 118.0 403.9 118.6L403.9 118.6Q403.9 119.3 403.5 119.9Q403.1 120.5 402.4 120.8Q401.7 121.2 400.7 121.2ZM408.6 121.1L408.6 121.1Q407.7 121.1 407.1 120.7Q406.4 120.3 406.0 119.5Q405.6 118.8 405.6 117.8L405.6 117.8Q405.6 116.7 406.0 116.0Q406.4 115.2 407.1 114.8Q407.7 114.4 408.6 114.4L408.6 114.4Q409.1 114.4 409.5 114.5Q409.9 114.6 410.3 114.8Q410.6 115.1 410.9 115.4Q411.1 115.8 411.3 116.2L411.3 116.2L410.3 116.5Q410.2 116.2 410.0 116.0Q409.9 115.8 409.7 115.6Q409.5 115.5 409.2 115.4Q408.9 115.3 408.6 115.3L408.6 115.3Q408.0 115.3 407.5 115.7Q407.1 116.0 406.9 116.6Q406.7 117.1 406.7 117.8L406.7 117.8Q406.7 118.4 406.9 119.0Q407.1 119.5 407.5 119.9Q408.0 120.2 408.6 120.2L408.6 120.2Q409.0 120.2 409.2 120.1Q409.5 120.0 409.7 119.9Q409.9 119.7 410.1 119.5Q410.2 119.3 410.3 119.0L410.3 119.0L411.3 119.3Q411.2 119.7 410.9 120.1Q410.7 120.4 410.3 120.6Q410.0 120.9 409.5 121.0Q409.1 121.1 408.6 121.1ZM414.4 121L413.3 121L413.3 114.4L414.3 114.4L414.3 115.5L414.4 115.5Q414.6 115.0 415.1 114.7Q415.5 114.4 416.1 114.4L416.1 114.4Q416.2 114.4 416.4 114.4Q416.5 114.4 416.6 114.4L416.6 114.4L416.6 115.4Q416.6 115.4 416.4 115.4Q416.2 115.4 416.0 115.4L416.0 115.4Q415.5 115.4 415.2 115.6Q414.8 115.8 414.6 116.1Q414.4 116.5 414.4 116.9L414.4 116.9L414.4 121ZM419.4 121L418.3 121L418.3 114.4L419.4 114.4L419.4 121ZM418.9 113.4L418.9 113.4Q418.6 113.4 418.3 113.2Q418.1 113.0 418.1 112.7L418.1 112.7Q418.1 112.4 418.3 112.2Q418.6 112.0 418.9 112.0L418.9 112.0Q419.2 112.0 419.4 112.2Q419.6 112.4 419.6 112.7L419.6 112.7Q419.6 113.0 419.4 113.2Q419.2 113.4 418.9 113.4ZM422.8 123.4L421.7 123.4L421.7 114.4L422.8 114.4L422.8 115.5L422.9 115.5Q423.0 115.3 423.2 115.1Q423.4 114.8 423.8 114.6Q424.1 114.4 424.8 114.4L424.8 114.4Q425.6 114.4 426.2 114.8Q426.8 115.2 427.2 115.9Q427.6 116.7 427.6 117.7L427.6 117.7Q427.6 118.8 427.2 119.5Q426.8 120.3 426.2 120.7Q425.6 121.1 424.8 121.1L424.8 121.1Q424.2 121.1 423.8 120.9Q423.4 120.7 423.2 120.4Q423.0 120.2 422.9 120.0L422.9 120.0L422.8 120.0L422.8 123.4ZM424.6 120.2L424.6 120.2Q425.2 120.2 425.6 119.9Q426.1 119.5 426.3 119.0Q426.5 118.4 426.5 117.7L426.5 117.7Q426.5 117.1 426.3 116.5Q426.1 116.0 425.7 115.6Q425.2 115.3 424.6 115.3L424.6 115.3Q424.0 115.3 423.6 115.6Q423.2 115.9 423.0 116.5Q422.8 117.0 422.8 117.7L422.8 117.7Q422.8 118.5 423.0 119.0Q423.2 119.6 423.6 119.9Q424.0 120.2 424.6 120.2ZM430.8 114.4L432.2 114.4L432.2 115.4L430.8 115.4L430.8 119.3Q430.8 119.7 431.0 119.9Q431.2 120.1 431.6 120.1L431.6 120.1Q431.7 120.1 431.8 120.1Q432 120.1 432.1 120.1L432.1 120.1L432.3 121.0Q432.2 121.0 432.0 121.1Q431.8 121.1 431.6 121.1L431.6 121.1Q430.7 121.1 430.2 120.6Q429.8 120.2 429.8 119.4L429.8 119.4L429.8 115.4L428.8 115.4L428.8 114.4L429.8 114.4L429.8 112.9L430.8 112.9L430.8 114.4Z "/></g></svg>